<svg width="12.000000" height="9.343750" viewBox="0 0 12 9.34375" fill="none" xmlns="http://www.w3.org/2000/svg" xmlns:xlink="http://www.w3.org/1999/xlink">
	<desc>
			Created with Pixso.
	</desc>
	<defs/>
	<path id="Vector" d="M10.91 3.34L10 0.67C8.72 0.17 7.36 -0.06 6 0C4.63 -0.06 3.27 0.17 2 0.67L1.1 3.34L0 3.34L0 4.67L0.66 5.34L0.66 9.34L2 9.34C2.17 9.34 2.34 9.27 2.47 9.14C2.59 9.02 2.66 8.85 2.66 8.67L9.33 8.67C9.33 8.85 9.4 9.02 9.52 9.14C9.65 9.27 9.82 9.34 10 9.34L11.33 9.34L11.33 5.34L12 4.67L12 3.34L10.91 3.34ZM3.06 1.7C4.01 1.44 5 1.32 6 1.34C6.99 1.32 7.98 1.45 8.94 1.7L10 4.67L2.06 4.67L3.06 1.7ZM2.66 7.34C2.53 7.34 2.4 7.3 2.29 7.23C2.18 7.15 2.1 7.05 2.05 6.93C2 6.81 1.98 6.67 2.01 6.54C2.03 6.41 2.1 6.29 2.19 6.2C2.28 6.11 2.4 6.04 2.53 6.02C2.66 5.99 2.79 6.01 2.92 6.06C3.04 6.11 3.14 6.19 3.22 6.3C3.29 6.41 3.33 6.54 3.33 6.67C3.33 6.85 3.26 7.02 3.13 7.14C3.01 7.27 2.84 7.34 2.66 7.34ZM9.33 7.34C9.2 7.34 9.07 7.3 8.96 7.23C8.85 7.15 8.76 7.05 8.71 6.93C8.66 6.81 8.65 6.67 8.67 6.54C8.7 6.41 8.76 6.29 8.86 6.2C8.95 6.11 9.07 6.04 9.2 6.02C9.33 5.99 9.46 6.01 9.58 6.06C9.71 6.11 9.81 6.19 9.88 6.3C9.96 6.41 10 6.54 10 6.67C10 6.85 9.92 7.02 9.8 7.14C9.67 7.27 9.51 7.34 9.33 7.34Z" fill="#989898" fill-opacity="1.000000" fill-rule="nonzero"/>
</svg>
