<svg width="10.666504" height="10.666992" viewBox="0 0 10.6665 10.667" fill="none" xmlns="http://www.w3.org/2000/svg" xmlns:xlink="http://www.w3.org/1999/xlink">
	<desc>
			Created with Pixso.
	</desc>
	<defs/>
	<path id="Vector" d="M10 3.33L10 0.71C8.49 0.23 6.91 -0.01 5.33 0C3.75 -0.01 2.17 0.23 0.66 0.71L0.66 3.33L0 3.33L0 5.33L0.66 6L0.66 10.66L1.33 10.66C1.51 10.66 1.67 10.59 1.8 10.47C1.92 10.34 2 10.17 2 10L8.66 10C8.66 10.17 8.73 10.34 8.86 10.47C8.98 10.59 9.15 10.66 9.33 10.66L10 10.66L10 6L10.66 5.33L10.66 3.33L10 3.33ZM4 1.33L6.66 1.33L6.66 2L4 2L4 1.33ZM2.66 8.66C2.53 8.66 2.4 8.62 2.29 8.55C2.18 8.48 2.1 8.37 2.05 8.25C2 8.13 1.98 7.99 2.01 7.87C2.03 7.74 2.1 7.62 2.19 7.52C2.28 7.43 2.4 7.37 2.53 7.34C2.66 7.32 2.79 7.33 2.92 7.38C3.04 7.43 3.14 7.52 3.22 7.62C3.29 7.73 3.33 7.86 3.33 8C3.33 8.17 3.26 8.34 3.13 8.47C3.01 8.59 2.84 8.66 2.66 8.66ZM8 8.66C7.86 8.66 7.73 8.62 7.62 8.55C7.52 8.48 7.43 8.37 7.38 8.25C7.33 8.13 7.32 7.99 7.34 7.87C7.37 7.74 7.43 7.62 7.52 7.52C7.62 7.43 7.74 7.37 7.87 7.34C7.99 7.32 8.13 7.33 8.25 7.38C8.37 7.43 8.48 7.52 8.55 7.62C8.62 7.73 8.66 7.86 8.66 8C8.66 8.17 8.59 8.34 8.47 8.47C8.34 8.59 8.17 8.66 8 8.66ZM8.66 5.33C8.66 5.5 8.59 5.67 8.47 5.8C8.34 5.92 8.17 6 8 6L2.66 6C2.48 6 2.32 5.92 2.19 5.8C2.07 5.67 2 5.5 2 5.33L2 2.66L8.66 2.66L8.66 5.33Z" fill="#989898" fill-opacity="1.000000" fill-rule="nonzero"/>
</svg>
