<svg width="20.000000" height="20.000000" viewBox="0 0 20 20" fill="none" xmlns="http://www.w3.org/2000/svg" xmlns:xlink="http://www.w3.org/1999/xlink">
	<desc>
			Created with Pixso.
	</desc>
	<defs>
		<clipPath id="clip2692_10305">
			<rect id="basic / clock" rx="-0.500000" width="19.000000" height="19.000000" transform="translate(0.500000 0.500000)" fill="white" fill-opacity="0"/>
		</clipPath>
	</defs>
	<g clip-path="url(#clip2692_10305)">
		<path id="coolicon" d="M10 18.33C5.39 18.33 1.66 14.6 1.66 9.99C1.66 5.39 5.39 1.66 10 1.66C14.6 1.66 18.33 5.39 18.33 9.99C18.32 14.6 14.59 18.32 10 18.33ZM10 3.33C6.31 3.33 3.33 6.31 3.33 9.99C3.33 13.68 6.31 16.66 10 16.66C13.68 16.66 16.66 13.68 16.66 9.99C16.66 6.31 13.67 3.33 10 3.33ZM14.16 10.83L9.16 10.83L9.16 5.83L10.83 5.83L10.83 9.16L14.16 9.16L14.16 10.83Z" fill="#1B0020" fill-opacity="1.000000" fill-rule="nonzero"/>
	</g>
</svg>
