<svg width="24.000000" height="24.000000" viewBox="0 0 24 24" fill="none" xmlns="http://www.w3.org/2000/svg" xmlns:xlink="http://www.w3.org/1999/xlink">
	<desc>
			Created with Pixso.
	</desc>
	<defs>
		<clipPath id="clip2894_12817">
			<rect id="Frame" rx="-0.500000" width="23.000000" height="23.000000" transform="translate(0.500000 0.500000)" fill="white" fill-opacity="0"/>
		</clipPath>
	</defs>
	<rect id="Frame" rx="-0.500000" width="23.000000" height="23.000000" transform="translate(0.500000 0.500000)" fill="#FFFFFF" fill-opacity="0"/>
	<g clip-path="url(#clip2894_12817)">
		<path id="Vector" d="M14.88 15.56L13.87 15.56C13.78 15.56 13.69 15.6 13.63 15.66C13.56 15.72 13.53 15.81 13.53 15.9C13.53 15.99 13.56 16.08 13.63 16.14C13.69 16.2 13.78 16.24 13.87 16.24L14.88 16.24C14.97 16.24 15.06 16.2 15.12 16.14C15.18 16.08 15.22 15.99 15.22 15.9C15.22 15.81 15.18 15.72 15.12 15.66C15.06 15.6 14.97 15.56 14.88 15.56ZM16.91 15.56L15.9 15.56C15.81 15.56 15.72 15.6 15.66 15.66C15.59 15.72 15.56 15.81 15.56 15.9C15.56 15.99 15.59 16.08 15.66 16.14C15.72 16.2 15.81 16.24 15.9 16.24L16.91 16.24C17 16.24 17.09 16.2 17.15 16.14C17.22 16.08 17.25 15.99 17.25 15.9C17.25 15.81 17.22 15.72 17.15 15.66C17.09 15.6 17 15.56 16.91 15.56ZM18.95 15.56L17.93 15.56C17.84 15.56 17.75 15.6 17.69 15.66C17.63 15.72 17.59 15.81 17.59 15.9C17.59 15.99 17.63 16.08 17.69 16.14C17.75 16.2 17.84 16.24 17.93 16.24L18.95 16.24C19.04 16.24 19.12 16.2 19.18 16.14C19.25 16.08 19.28 15.99 19.28 15.9C19.28 15.81 19.25 15.72 19.18 15.66C19.12 15.6 19.04 15.56 18.95 15.56Z" fill="#989898" fill-opacity="1.000000" fill-rule="nonzero"/>
		<path id="Vector" d="M20.3 1L2.69 1C1.75 1 1 1.75 1 2.69L1 20.3C1 21.24 1.75 21.99 2.69 22L20.3 22C21.24 21.99 21.99 21.24 22 20.3L22 2.69C21.99 1.75 21.24 1 20.3 1ZM21.32 20.3C21.32 20.86 20.86 21.32 20.3 21.32L2.69 21.32C2.13 21.32 1.67 20.86 1.67 20.3L1.67 2.69C1.67 2.13 2.13 1.67 2.69 1.67L20.3 1.67C20.86 1.67 21.32 2.13 21.32 2.69L21.32 20.3Z" fill="#989898" fill-opacity="1.000000" fill-rule="nonzero"/>
		<path id="Vector" d="M20.3 11.16L11.83 11.16L11.83 2.69C11.83 2.6 11.79 2.51 11.73 2.45C11.67 2.39 11.58 2.35 11.49 2.35C11.4 2.35 11.32 2.39 11.25 2.45C11.19 2.51 11.15 2.6 11.15 2.69L11.15 11.16L2.69 11.16C2.6 11.16 2.51 11.19 2.45 11.26C2.38 11.32 2.35 11.41 2.35 11.5C2.35 11.59 2.38 11.67 2.45 11.74C2.51 11.8 2.6 11.83 2.69 11.83L11.15 11.83L11.15 20.3C11.15 20.39 11.19 20.48 11.25 20.54C11.32 20.61 11.4 20.64 11.49 20.64C11.58 20.64 11.67 20.61 11.73 20.54C11.79 20.48 11.83 20.39 11.83 20.3L11.83 11.83L20.3 11.83C20.39 11.83 20.47 11.8 20.54 11.74C20.6 11.67 20.64 11.59 20.64 11.5C20.64 11.41 20.6 11.32 20.54 11.26C20.47 11.19 20.39 11.16 20.3 11.16Z" fill="#989898" fill-opacity="1.000000" fill-rule="nonzero"/>
		<path id="Vector" d="M5.57 6.38L6.41 5.54L6.41 9.46C6.41 9.55 6.45 9.64 6.51 9.7C6.57 9.77 6.66 9.8 6.75 9.8C6.84 9.8 6.93 9.77 6.99 9.7C7.05 9.64 7.09 9.55 7.09 9.46L7.09 4.72C7.09 4.58 7.01 4.46 6.88 4.41C6.75 4.36 6.61 4.39 6.51 4.48L5.09 5.91C5.03 5.97 4.99 6.05 4.99 6.14C4.99 6.23 5.03 6.32 5.09 6.38C5.15 6.44 5.24 6.48 5.33 6.48C5.42 6.48 5.5 6.45 5.57 6.38ZM8.44 14.71C8.39 13.83 7.64 13.15 6.75 13.19C5.86 13.15 5.11 13.83 5.06 14.71C5.06 14.8 5.09 14.89 5.16 14.95C5.22 15.02 5.31 15.05 5.39 15.05C5.48 15.05 5.57 15.02 5.63 14.95C5.7 14.89 5.73 14.8 5.73 14.71C5.79 14.2 6.24 13.83 6.75 13.87C7.26 13.83 7.71 14.2 7.77 14.71C7.71 15.23 7.26 15.6 6.75 15.56C6.66 15.56 6.57 15.6 6.51 15.66C6.45 15.72 6.41 15.81 6.41 15.9C6.41 15.99 6.45 16.08 6.51 16.14C6.57 16.2 6.66 16.24 6.75 16.24C7.26 16.2 7.71 16.57 7.77 17.08C7.71 17.6 7.26 17.97 6.75 17.93C6.24 17.97 5.79 17.6 5.73 17.08C5.73 17 5.7 16.91 5.63 16.84C5.57 16.78 5.48 16.75 5.39 16.75C5.31 16.75 5.22 16.78 5.16 16.84C5.09 16.91 5.06 17 5.06 17.08C5.11 17.97 5.86 18.65 6.75 18.61C7.64 18.65 8.39 17.97 8.44 17.08C8.44 16.85 8.38 16.62 8.27 16.42C8.16 16.21 8 16.03 7.81 15.9C8 15.77 8.16 15.59 8.27 15.38C8.38 15.18 8.44 14.95 8.44 14.71ZM14.81 6.48C14.9 6.48 14.99 6.45 15.05 6.38C15.11 6.32 15.15 6.23 15.15 6.14C15.15 5.55 15.64 5.06 16.23 5.06C16.41 5.06 16.57 5.1 16.72 5.18C16.87 5.27 17 5.39 17.08 5.54C17.17 5.7 17.22 5.89 17.22 6.07C17.21 6.26 17.16 6.44 17.07 6.6C16.57 7.32 15.98 7.97 15.3 8.53C15.05 8.77 14.8 9 14.57 9.22C14.48 9.32 14.45 9.47 14.5 9.59C14.55 9.72 14.67 9.8 14.81 9.8L17.59 9.8C17.68 9.8 17.76 9.77 17.83 9.7C17.89 9.64 17.93 9.55 17.93 9.46C17.93 9.37 17.89 9.29 17.83 9.22C17.76 9.16 17.68 9.12 17.59 9.12L15.66 9.12L15.76 9.03C16.48 8.43 17.12 7.72 17.65 6.94C17.8 6.68 17.89 6.38 17.89 6.08C17.89 5.77 17.82 5.47 17.67 5.2C17.52 4.95 17.31 4.74 17.06 4.6C16.81 4.45 16.52 4.38 16.23 4.38C15.26 4.38 14.47 5.17 14.47 6.14C14.47 6.23 14.51 6.32 14.57 6.38C14.64 6.45 14.72 6.48 14.81 6.48Z" fill="#989898" fill-opacity="1.000000" fill-rule="nonzero"/>
	</g>
</svg>
