<svg width="23.752930" height="23.711914" viewBox="0 0 23.7529 23.7119" fill="none" xmlns="http://www.w3.org/2000/svg" xmlns:xlink="http://www.w3.org/1999/xlink">
	<desc>
			Created with Pixso.
	</desc>
	<defs>
		<clipPath id="clip2894_12776">
			<rect id="Frame" rx="-0.500000" width="22.752922" height="22.712082" transform="translate(0.500000 0.500000)" fill="white" fill-opacity="0"/>
		</clipPath>
	</defs>
	<rect id="Frame" rx="-0.500000" width="22.752922" height="22.712082" transform="translate(0.500000 0.500000)" fill="#FFFFFF" fill-opacity="0"/>
	<g clip-path="url(#clip2894_12776)">
		<path id="Vector" d="M22.74 14.29L20.9 7.87L21.07 7.93C21.26 8 21.48 7.91 21.56 7.71L22.09 6.31C22.11 6.27 22.12 6.22 22.12 6.17C22.12 6.12 22.11 6.07 22.08 6.02C22.06 5.98 22.04 5.94 22 5.9C21.96 5.87 21.92 5.84 21.87 5.83L16.08 3.62C15.65 2.52 14.78 1.66 13.66 1.25C13.14 1.06 12.6 0.98 12.06 1C11.52 1.02 10.99 1.15 10.49 1.38C10.08 1.58 9.7 1.84 9.37 2.16C7.95 1.72 6.44 1.82 5.09 2.45C3.64 3.13 2.53 4.33 1.99 5.84C1.15 8.13 1.8 10.71 3.61 12.34L3.02 13.95C2.99 14.04 2.99 14.15 3.04 14.24L3.32 14.86L2.7 15.15C2.51 15.23 2.43 15.46 2.52 15.65L2.81 16.27L2.19 16.56C2 16.64 1.92 16.87 2.01 17.06L2.3 17.68L1.67 17.97C1.58 18.01 1.51 18.08 1.48 18.18L1.02 19.45C0.99 19.53 0.99 19.62 1.02 19.7L2.01 22.46C2.03 22.51 2.06 22.56 2.1 22.6C2.14 22.64 2.18 22.67 2.24 22.69C2.29 22.7 2.34 22.71 2.4 22.71C2.45 22.7 2.5 22.68 2.55 22.66L5.08 21.18C5.16 21.14 5.22 21.07 5.25 20.99L7.83 13.88C9.39 13.82 10.87 13.16 11.95 12.04L13.36 16.96C13.39 17.06 13.45 17.14 13.54 17.19C13.6 17.22 13.66 17.24 13.72 17.24C13.75 17.24 13.79 17.23 13.82 17.22L22.48 14.74C22.67 14.68 22.79 14.47 22.73 14.27L22.74 14.29ZM20.99 7.1L15.21 4.9C15.05 4.84 14.88 4.89 14.78 5.02L13.5 6.71C13.44 6.4 13.35 6.1 13.25 5.81L14.52 4.12C14.62 3.99 14.8 3.94 14.95 4L21.26 6.4L20.99 7.1ZM10.82 2.07C11.22 1.88 11.65 1.77 12.1 1.75C12.54 1.74 12.99 1.8 13.4 1.96C14.07 2.2 14.65 2.65 15.05 3.25C14.63 3.16 14.19 3.32 13.92 3.67L12.89 5.03C12.29 3.94 11.36 3.02 10.18 2.47C10.37 2.31 10.59 2.18 10.82 2.08L10.82 2.07ZM8.34 4.4C8.44 4.35 8.55 4.33 8.65 4.33C8.77 4.33 8.89 4.35 9 4.41C9.11 4.46 9.2 4.54 9.27 4.64C9.34 4.74 9.38 4.86 9.4 4.98C9.41 5.09 9.4 5.22 9.36 5.33C9.29 5.52 9.15 5.67 8.97 5.75C8.79 5.84 8.59 5.85 8.4 5.78C8.21 5.71 8.06 5.57 7.98 5.39C7.89 5.21 7.88 5.01 7.95 4.82C8.02 4.63 8.16 4.48 8.34 4.4ZM7.58 13.14C7.42 13.15 7.28 13.24 7.22 13.39L4.59 20.62L2.57 21.79L1.77 19.59L2.14 18.59L2.96 18.21C3.14 18.12 3.23 17.9 3.14 17.71L2.85 17.09L3.47 16.8C3.66 16.71 3.74 16.49 3.65 16.3L3.36 15.68L3.98 15.39C4.17 15.3 4.25 15.08 4.16 14.89L3.78 14.07L4.4 12.36C4.46 12.21 4.41 12.04 4.29 11.94C2.58 10.53 1.94 8.18 2.69 6.1C3.62 3.57 6.29 2.18 8.85 2.79C8.68 3.04 8.53 3.31 8.42 3.6C8.28 3.62 8.15 3.66 8.02 3.72C7.66 3.89 7.39 4.19 7.25 4.56C7.11 4.94 7.13 5.35 7.29 5.71C7.46 6.08 7.76 6.35 8.14 6.49C8.31 6.55 8.48 6.58 8.65 6.58C9.26 6.58 9.84 6.2 10.06 5.59C10.34 4.82 9.95 3.98 9.19 3.68C9.3 3.45 9.44 3.24 9.6 3.04C10.83 3.54 11.82 4.47 12.39 5.68C12.98 6.95 13.04 8.38 12.56 9.7C11.81 11.78 9.81 13.16 7.58 13.15L7.58 13.14ZM16.5 15.68L15.26 11.36L18.15 10.53L19.39 14.85L16.5 15.68ZM20.11 14.65L18.77 9.96C18.75 9.91 18.73 9.87 18.7 9.83C18.67 9.79 18.63 9.76 18.59 9.74C18.5 9.69 18.4 9.68 18.3 9.7L14.7 10.74C14.5 10.79 14.38 11 14.44 11.2L15.78 15.89L13.98 16.41L12.53 11.34C12.83 10.92 13.08 10.45 13.26 9.95C13.52 9.23 13.63 8.5 13.62 7.79L15.2 5.69L20.02 7.53L21.91 14.13L20.1 14.64L20.11 14.65Z" fill="#989898" fill-opacity="1.000000" fill-rule="nonzero"/>
	</g>
</svg>
