<svg width="24.000000" height="24.000000" viewBox="0 0 24 24" fill="none" xmlns="http://www.w3.org/2000/svg" xmlns:xlink="http://www.w3.org/1999/xlink">
	<desc>
			Created with Pixso.
	</desc>
	<defs/>
	<rect id="Icon / Heart" rx="0.500000" width="23.000000" height="23.000000" transform="translate(0.500000 0.500000)" fill="#FFFFFF" fill-opacity="0"/>
	<path id="Vector (Stroke)" d="M12.58 7.16C12.13 7.82 12 8.35 12 8.35C12 8.35 11.86 7.82 11.41 7.16C11.25 6.92 11.05 6.66 10.8 6.39C10.55 6.14 10.25 5.88 9.9 5.64C7.12 3.75 1.98 6.05 4.83 11.98C6.95 16.38 10.9 19 12 19C13.09 19 17.04 16.38 19.16 11.98C22.01 6.05 16.87 3.75 14.09 5.64C13.74 5.88 13.44 6.14 13.19 6.39C12.94 6.66 12.74 6.92 12.58 7.16ZM12 6.25C11.85 6.06 11.69 5.88 11.52 5.7C11.46 5.65 11.41 5.59 11.36 5.54C11.08 5.27 10.78 5.03 10.46 4.81C10.34 4.73 10.22 4.66 10.1 4.59C9.77 4.41 9.4 4.26 9.02 4.16C8.84 4.11 8.65 4.07 8.46 4.05C8.14 4 7.81 3.98 7.48 4C7.14 4.02 6.8 4.07 6.47 4.16C6.3 4.2 6.13 4.25 5.97 4.32C5.6 4.46 5.25 4.64 4.94 4.86C4.82 4.94 4.71 5.02 4.61 5.11C4.39 5.3 4.19 5.5 4.02 5.72C3.85 5.93 3.7 6.15 3.57 6.4C3.54 6.44 3.52 6.48 3.5 6.53C3.26 7.01 3.1 7.53 3.04 8.1C2.88 9.41 3.18 10.85 3.93 12.42C4.46 13.51 5.12 14.56 5.91 15.55C6.59 16.41 7.33 17.19 8.14 17.89C8.86 18.51 9.55 19.01 10.22 19.39C10.94 19.79 11.53 20 12 20C12.46 20 13.05 19.79 13.77 19.39C14.44 19.01 15.13 18.51 15.85 17.89C16.66 17.19 17.4 16.41 18.08 15.55C18.87 14.56 19.53 13.51 20.06 12.42C20.81 10.85 21.11 9.41 20.96 8.1C20.89 7.53 20.73 7.01 20.49 6.53C20.47 6.48 20.45 6.44 20.42 6.4C20.29 6.15 20.14 5.93 19.97 5.72C19.8 5.5 19.6 5.3 19.38 5.11C19.28 5.02 19.17 4.94 19.05 4.86C18.74 4.64 18.39 4.46 18.02 4.32C17.86 4.25 17.69 4.2 17.52 4.16C17.19 4.07 16.85 4.02 16.51 4C16.18 3.98 15.85 4 15.53 4.05C15.34 4.07 15.15 4.11 14.97 4.16C14.59 4.26 14.24 4.4 13.9 4.58C13.78 4.65 13.65 4.73 13.53 4.81C13.22 5.02 12.93 5.26 12.66 5.51C12.6 5.57 12.53 5.64 12.47 5.7C12.3 5.88 12.14 6.06 12 6.25Z" fill="#000000" fill-opacity="1.000000" fill-rule="evenodd"/>
</svg>
