<svg width="10.333496" height="13.159912" viewBox="0 0 10.3335 13.1599" fill="none" xmlns="http://www.w3.org/2000/svg" xmlns:xlink="http://www.w3.org/1999/xlink">
	<desc>
			Created with Pixso.
	</desc>
	<defs/>
	<path id="coolicon" d="M2.83 10.14C1.76 8.87 0.5 6.97 0.5 5.16C0.49 3.28 1.63 1.57 3.38 0.85C5.12 0.13 7.13 0.53 8.46 1.86C9.34 2.74 9.83 3.93 9.83 5.16C9.83 6.97 8.56 8.87 7.5 10.14C6.78 10.99 6 11.78 5.16 12.5C4.32 11.78 3.54 10.99 2.83 10.14ZM3.43 4.16C3.07 4.78 3.07 5.55 3.43 6.16C3.79 6.78 4.45 7.16 5.16 7.16C6.27 7.16 7.16 6.27 7.16 5.16C7.16 4.06 6.27 3.16 5.16 3.16C4.45 3.16 3.79 3.55 3.43 4.16Z" stroke="#1B0020" stroke-opacity="1.000000" stroke-width="1.000000"/>
</svg>
