<svg class="w-24 md:w-full" width="139" height="32" viewBox="0 0 139 32" 
xmlns="http://www.w3.org/2000/svg">
<g clip-path="url(#clip0_2277_3159)">
<path fill='#85009E' d="M69.5475 3.35329C70.9727 3.35329 72.3978 3.35329 73.823 3.35329C75.4381 3.35329 76.3882 4.11976 76.3882 5.46108C76.3882 6.8982 75.4381 7.56886 73.823 7.56886C72.3978 7.56886 70.9727 7.56886 69.5475 7.56886C69.5475 6.22754 69.5475 4.79042 69.5475 3.35329ZM45.5099 10.7305V7.66467H38.0991V10.7305C39.4293 10.7305 41.8045 10.7305 45.5099 10.7305ZM45.5099 18.1078V14.3713H34.3937V4.11976H45.4149V0.383234H30.6883C30.6883 6.32335 30.6883 12.1677 30.6883 18.1078C34.0137 18.1078 36.1989 18.1078 45.5099 18.1078ZM53.8708 0.383234H57.5762H63.0868V4.11976H57.5762V18.1078H53.8708V4.11976H48.3602V0.383234H53.8708ZM93.11 4.79042L95.6753 10.9222H90.5448L93.11 4.79042ZM87.5994 18.1078L89.3096 13.988H96.7204L98.4306 18.1078H102.231L94.8202 0.287425H91.3999L83.8941 18.1078H87.5994V18.1078ZM139 11.1138V7.37724H131.589V11.1138C132.919 11.1138 135.39 11.1138 139 11.1138ZM139 18.1078V14.3713H127.979V4.11976H139V0.383234H124.273C124.273 6.32335 124.273 12.1677 124.273 18.1078C125.033 18.1078 125.794 18.1078 126.554 18.1078V22.7066L131.114 18.1078C133.774 18.1078 136.435 18.1078 139 18.1078ZM11.9713 7.08982L15.6767 10.8263L26.1278 0.287425V18.012H22.4224V9.29341L15.6767 16.0958L8.93096 9.29341V18.012H5.22556V5.55689L0 0.383234H5.22556L11.9713 7.08982ZM114.107 7.76048V11.4012H116.008V13.8922C115.152 14.6587 114.012 15.0419 112.492 15.0419C110.877 15.0419 109.547 14.4671 108.407 13.509C107.362 12.4551 106.792 11.018 106.792 9.29341C106.792 7.47305 107.362 6.13174 108.502 5.07784C109.642 4.02395 111.067 3.4491 112.872 3.4491H119.618V0H112.872C112.777 0 112.682 0 112.587 0C109.832 0 107.552 0.862275 105.746 2.58683C103.941 4.31138 103.086 6.51497 103.086 9.1976C103.086 11.8802 104.036 14.0838 105.746 15.8084C107.552 17.5329 109.737 18.3952 112.397 18.3952C113.917 18.3952 115.247 18.1078 116.578 17.6287C117.813 17.0539 118.858 16.3832 119.618 15.6168V11.4012V7.76048H116.008H114.107ZM69.5475 18.1078C69.5475 15.7126 69.5475 13.1257 69.5475 10.8263C70.5926 10.8263 71.5427 10.8263 72.5878 10.8263L77.7184 18.1078H81.8988C80.0936 15.6168 78.2884 12.9341 76.4833 10.3473C78.7635 9.67665 80.0936 7.9521 80.0936 5.55689C80.0936 4.02395 79.5236 2.77844 78.4785 1.82036C77.4334 0.862275 75.9132 0.383234 74.013 0.383234H65.8421V18.1078H69.5475Z" ></path>
<path fill='#85009E' d="M117.718 30.2743C117.908 30.2743 118.098 30.2743 118.193 30.1785C118.288 30.0827 118.383 29.8911 118.383 29.6994C118.383 29.5078 118.288 29.3162 118.193 29.3162C118.098 29.2204 117.908 29.2204 117.718 29.2204H116.958V30.3701H117.718V30.2743ZM118.003 28.3581C118.573 28.3581 118.953 28.4539 119.238 28.7414C119.523 28.933 119.618 29.3162 119.618 29.6994C119.618 30.1785 119.428 30.4659 119.143 30.7533C118.858 31.0408 118.383 31.1366 117.813 31.1366H115.818V27.1126H116.958V28.4539H118.003V28.3581ZM111.258 27.9749H109.927V31.0408H108.787V27.9749H107.362V27.0168H111.258V27.9749ZM101.376 31.1366C100.901 31.1366 100.521 31.0408 100.236 30.8491C99.8563 30.6575 99.6663 30.4659 99.4763 30.0827C99.2863 29.7953 99.1913 29.412 99.1913 29.0288C99.1913 28.6456 99.2863 28.2623 99.4763 27.9749C99.6663 27.6875 99.9513 27.4 100.236 27.2084C100.616 27.0168 100.996 26.921 101.376 26.921C101.757 26.921 102.137 27.0168 102.517 27.2084C102.802 27.4 103.087 27.6875 103.182 27.9749L102.232 28.4539C102.042 28.0707 101.757 27.8791 101.281 27.8791C100.996 27.8791 100.711 27.9749 100.521 28.1665C100.331 28.3581 100.236 28.6456 100.236 29.0288C100.236 29.412 100.331 29.6036 100.521 29.8911C100.711 30.0827 100.996 30.1785 101.281 30.1785C101.662 30.1785 101.947 29.9869 102.232 29.6036L103.182 30.0827C102.992 30.3701 102.802 30.6575 102.517 30.8491C102.137 31.0408 101.852 31.1366 101.376 31.1366ZM92.5405 30.1785C92.8256 30.1785 93.1106 30.0827 93.3006 29.8911C93.4906 29.6994 93.5857 29.412 93.5857 29.0288C93.5857 28.6456 93.4906 28.4539 93.3006 28.1665C93.1106 27.8791 92.8256 27.8791 92.5405 27.8791C92.2555 27.8791 91.9705 27.9749 91.7805 28.1665C91.5904 28.3581 91.4954 28.6456 91.4954 29.0288C91.4954 29.412 91.5904 29.6036 91.7805 29.8911C91.9705 30.0827 92.2555 30.1785 92.5405 30.1785ZM92.5405 31.1366C92.1605 31.1366 91.7805 31.0408 91.4004 30.8491C91.0204 30.6575 90.8304 30.4659 90.6403 30.0827C90.4503 29.7953 90.3553 29.412 90.3553 29.0288C90.3553 28.6456 90.4503 28.2623 90.6403 27.9749C90.8304 27.6875 91.1154 27.4 91.4004 27.2084C91.7805 27.0168 92.1605 26.921 92.5405 26.921C92.9206 26.921 93.3006 27.0168 93.6807 27.2084C94.0607 27.4 94.2507 27.5917 94.4408 27.9749C94.6308 28.2623 94.7258 28.6456 94.7258 29.0288C94.7258 29.412 94.6308 29.7953 94.4408 30.0827C94.2507 30.3701 93.9657 30.6575 93.6807 30.8491C93.3006 31.0408 92.9206 31.1366 92.5405 31.1366ZM84.4647 31.0408V28.6456L83.3245 30.6575H82.8495L81.7094 28.6456V31.0408H80.6643V27.0168H81.8994L83.2295 29.3162L84.5597 27.0168H85.5098V31.0408H84.4647ZM71.3533 27.0168H72.4934V29.412L74.4886 27.0168H75.5337V31.0408H74.3936V28.6456L72.3984 31.0408H71.3533V27.0168ZM64.5125 29.5078H63.9425V31.0408H62.8023V29.5078H62.2323L61.3772 31.0408H60.047L61.2822 28.933L60.142 27.0168H61.3772L62.2323 28.5497H62.8023V27.0168H63.9425V28.5497H64.5125L65.3676 27.0168H66.6027L65.4626 28.933L66.6978 31.0408H65.2726L64.5125 29.5078ZM51.3061 27.0168H52.4462V29.412L54.4414 27.0168H55.4865V31.0408H54.3464V28.6456L52.3512 31.0408H51.3061V27.0168ZM44.7504 30.2743C45.2254 30.2743 45.4155 30.0827 45.4155 29.7953C45.4155 29.6036 45.3204 29.5078 45.2254 29.412C45.1304 29.3162 44.9404 29.3162 44.7504 29.3162H43.7053V30.1785H44.7504V30.2743ZM43.8003 28.6456H44.6554C45.0354 28.6456 45.2254 28.4539 45.2254 28.1665C45.2254 27.8791 45.0354 27.7833 44.6554 27.7833H43.8003V28.6456ZM45.7955 28.933C46.2705 29.1246 46.4606 29.412 46.4606 29.8911C46.4606 30.2743 46.3656 30.5617 46.0805 30.7533C45.7955 30.945 45.4155 31.0408 44.8454 31.0408H42.6602V27.0168H44.7504C45.2254 27.0168 45.6055 27.1126 45.8905 27.3042C46.1755 27.4959 46.2705 27.7833 46.2705 28.0707C46.2705 28.2623 46.1755 28.4539 46.0805 28.6456C46.0805 28.7414 45.9855 28.8372 45.7955 28.933ZM34.9643 28.5497C34.9643 28.933 34.9643 29.3162 34.8693 29.6036C34.8693 29.8911 34.7743 30.0827 34.5843 30.1785H36.2945V28.0707H34.9643V28.5497ZM38.0047 30.0827V31.903H36.9595V31.0408H34.1092V31.903H33.0641V30.0827H33.2541C33.5392 30.0827 33.6342 29.8911 33.7292 29.6036C33.8242 29.3162 33.9192 28.933 33.9192 28.3581L34.0142 26.921H37.5296V29.9869H38.0047V30.0827ZM26.6034 27.8791C26.3184 27.8791 26.1284 27.9749 25.9384 28.0707C25.7483 28.2623 25.6533 28.4539 25.6533 28.6456H27.5535C27.5535 28.3581 27.3635 28.1665 27.2685 28.0707C27.0785 27.8791 26.8885 27.8791 26.6034 27.8791ZM28.6937 29.0288C28.6937 29.0288 28.6937 29.1246 28.6937 29.3162H25.6533C25.7483 29.6036 25.8433 29.7953 26.0334 29.8911C26.2234 30.0827 26.5084 30.0827 26.7934 30.0827C26.9835 30.0827 27.1735 30.0827 27.3635 29.9869C27.5535 29.8911 27.6485 29.7953 27.8386 29.6994L28.5036 30.3701C28.1236 30.8491 27.5535 31.0408 26.8885 31.0408C26.4134 31.0408 26.0334 30.945 25.6533 30.7533C25.2733 30.5617 24.9883 30.3701 24.7982 29.9869C24.6082 29.6994 24.5132 29.3162 24.5132 28.933C24.5132 28.5497 24.6082 28.1665 24.7982 27.8791C24.9883 27.5917 25.2733 27.3042 25.5583 27.1126C25.8433 26.921 26.2234 26.8252 26.6984 26.8252C27.0785 26.8252 27.4585 26.921 27.7435 27.1126C28.0286 27.3042 28.3136 27.4959 28.5036 27.8791C28.5986 28.2623 28.6937 28.6456 28.6937 29.0288ZM15.6772 27.0168H16.8174V28.6456H18.5276V27.0168H19.6677V31.0408H18.5276V29.5078H16.8174V31.0408H15.6772V27.0168Z"></path></g><defs><clipPath id="clip0_2277_3159"><rect width="139" height="32" fill="white"></rect></clipPath></defs></svg>