<svg width="7.000000" height="12.000000" viewBox="0 0 7 12" fill="none" xmlns="http://www.w3.org/2000/svg" xmlns:xlink="http://www.w3.org/1999/xlink">
	<desc>
			Created with Pixso.
	</desc>
	<defs/>
	<path id="Vector" d="M3.78 2.23C3.25 2.2 2.6 1.67 2.6 1.12C2.6 0.56 3.04 0.02 3.61 0C4.18 -0.02 4.79 0.29 4.79 1.12C4.79 1.94 4.31 2.25 3.78 2.23ZM6.25 8.92C6.25 8.92 6.95 11.08 6.97 11.16C7.07 11.6 6.89 12 6.39 12C6.19 12 5.95 11.83 5.82 11.51L5.06 9.41C4.92 9.04 4.71 8.71 4.45 8.43L2.72 6.71C2.65 6.63 2.61 6.53 2.6 6.42L2.57 3.96C2.57 3.87 2.51 3.83 2.44 3.89L1.75 4.42C1.6 4.53 1.46 4.77 1.44 4.96L1.26 6.42C1.2 6.74 1.02 6.91 0.78 6.91C0.54 6.91 0.27 6.72 0.29 6.39L0.47 4.69C0.5 4.31 0.77 3.81 1.05 3.58C1.05 3.58 2.24 2.52 2.95 2.48C3.74 2.44 4.38 2.78 4.38 3.52L4.38 6.49C4.38 6.58 4.43 6.72 4.5 6.79L5.65 7.94C5.87 8.17 6.14 8.61 6.25 8.92L6.25 8.92ZM0 11.14C-0.03 11 0.03 10.81 0.14 10.65L1.54 8.68C1.67 8.49 1.87 8.17 1.98 7.96L2.43 7.11C2.47 7.03 2.56 7.02 2.63 7.09L3.41 7.9C3.44 7.93 3.46 7.98 3.47 8.02C3.47 8.07 3.46 8.12 3.44 8.16L3.21 8.58C3.07 8.83 2.91 9.07 2.74 9.29L1.09 11.36C1.03 11.43 0.95 11.49 0.87 11.54C0.79 11.58 0.7 11.6 0.61 11.6C0.17 11.6 0.06 11.41 0 11.14ZM4.65 5.92L4.65 4.76C4.65 4.67 4.7 4.64 4.77 4.7L6 5.83C6.14 6 6.23 6.13 6.23 6.35C6.23 6.63 5.95 6.96 5.69 6.79C5.59 6.72 4.79 6.18 4.79 6.18C4.75 6.15 4.71 6.11 4.69 6.07C4.66 6.02 4.65 5.97 4.65 5.92Z" fill="#989898" fill-opacity="1.000000" fill-rule="evenodd"/>
</svg>
