<svg width="24.000000" height="24.000000" viewBox="0 0 24 24" fill="none" xmlns="http://www.w3.org/2000/svg" xmlns:xlink="http://www.w3.org/1999/xlink">
	<desc>
			Created with Pixso.
	</desc>
	<defs>
		<clipPath id="clip2894_12793">
			<rect id="Frame" rx="-0.500000" width="23.000000" height="23.000000" transform="translate(0.500000 0.500000)" fill="white" fill-opacity="0"/>
		</clipPath>
	</defs>
	<rect id="Frame" rx="-0.500000" width="23.000000" height="23.000000" transform="translate(0.500000 0.500000)" fill="#FFFFFF" fill-opacity="0"/>
	<g clip-path="url(#clip2894_12793)">
		<path id="Vector" d="M22.39 2L2.6 2C2.27 2 2 2.29 2 2.66L2 21.59C2 21.96 2.27 22.26 2.6 22.26L22.39 22.26C22.72 22.26 23 21.96 23 21.59L23 2.66C23 2.3 22.72 2 22.39 2ZM12.83 17.59L12.83 14.45L16.01 14.45C16.02 14.46 16.04 14.46 16.06 14.46C16.08 14.46 16.09 14.46 16.11 14.45L19.29 14.45L19.29 17.59L12.83 17.59ZM2.67 17.59L2.67 14.45L5.02 14.45L5.02 17.59L2.67 17.59ZM12.15 6.65L12.15 9.8L5.7 9.8L5.7 6.65L12.15 6.65ZM22.32 6.65L22.32 9.8L19.96 9.8L19.96 6.65L22.32 6.65ZM22.32 13.7L16.4 13.7L16.4 10.55L22.32 10.55L22.32 13.7ZM9.26 13.7L9.26 10.55L15.72 10.55L15.72 13.7L9.26 13.7ZM2.67 13.7L2.67 10.55L8.58 10.55L8.58 13.7L2.67 13.7ZM19.29 9.8L12.83 9.8L12.83 6.65L19.29 6.65L19.29 9.8ZM9.26 5.9L9.26 2.75L15.72 2.75L15.72 5.9L9.26 5.9ZM5.02 9.8L2.67 9.8L2.67 6.65L5.02 6.65L5.02 9.8ZM5.7 14.45L8.87 14.45C8.89 14.46 8.9 14.46 8.92 14.46C8.94 14.46 8.96 14.46 8.98 14.45L12.15 14.45L12.15 17.59L5.7 17.59L5.7 14.45ZM15.72 18.34L15.72 21.51L9.26 21.51L9.26 18.34L15.72 18.34ZM19.96 14.45L22.32 14.45L22.32 17.59L19.96 17.59L19.96 14.45ZM22.32 5.9L16.4 5.9L16.4 2.75L22.32 2.75L22.32 5.9ZM8.58 2.75L8.58 5.9L2.67 5.9L2.67 2.75L8.58 2.75ZM2.67 18.34L8.58 18.34L8.58 21.51L2.67 21.51L2.67 18.34ZM16.4 21.51L16.4 18.34L22.32 18.34L22.32 21.51L16.4 21.51Z" fill="#989898" fill-opacity="1.000000" fill-rule="nonzero"/>
	</g>
</svg>
