<?xml version="1.0" encoding="UTF-8" standalone="no"?>
<svg xmlns="http://www.w3.org/2000/svg" height="90" viewBox="0 0 500 90" clip-rule="evenodd" fill-rule="evenodd" image-rendering="optimizeQuality" shape-rendering="geometricPrecision" text-rendering="geometricPrecision" style="white-space: preserve-spaces;transform-style: preserve-3d;perspective: 500px;">
    <style>
@keyframes a0_t { 0% { transform: translate(137.032px,38.9068px) rotate3d(0, 1, 0, 90deg) translate(-137.032px,-32.8884px); animation-timing-function: cubic-bezier(0.25,0.46,0.45,0.94); } 13.6363% { transform: translate(137.032px,38.9068px) rotate3d(0, 1, 0, 0deg) translate(-137.032px,-32.8884px); } 77.2727% { transform: translate(137.032px,38.9068px) rotate3d(0, 1, 0, 0deg) translate(-137.032px,-32.8884px); animation-timing-function: cubic-bezier(0.55,0.085,0.68,0.53); } 90.909% { transform: translate(137.032px,38.9068px) rotate3d(0, 1, 0, -90deg) translate(-137.032px,-32.8884px); } 100% { transform: translate(137.032px,38.9068px) rotate3d(0, 1, 0, -90deg) translate(-137.032px,-32.8884px); } }
@keyframes a1_t { 0% { transform: translate(200.309px,38.895px) rotate3d(0, 1, 0, 90deg) translate(-200.309px,-32.8766px); } 9.0909% { transform: translate(200.309px,38.895px) rotate3d(0, 1, 0, 90deg) translate(-200.309px,-32.8766px); animation-timing-function: cubic-bezier(0.25,0.46,0.45,0.94); } 22.7272% { transform: translate(200.309px,38.895px) rotate3d(0, 1, 0, 0deg) translate(-200.309px,-32.8766px); } 77.2727% { transform: translate(200.309px,38.895px) rotate3d(0, 1, 0, 0deg) translate(-200.309px,-32.8766px); animation-timing-function: cubic-bezier(0.55,0.085,0.68,0.53); } 90.909% { transform: translate(200.309px,38.895px) rotate3d(0, 1, 0, -90deg) translate(-200.309px,-32.8766px); } 100% { transform: translate(200.309px,38.895px) rotate3d(0, 1, 0, -90deg) translate(-200.309px,-32.8766px); } }
@keyframes a2_t { 0% { transform: translate(265.773px,38.8954px) rotate3d(0, 1, 0, 90deg) translate(-265.773px,-32.8769px); } 18.1818% { transform: translate(265.773px,38.8954px) rotate3d(0, 1, 0, 90deg) translate(-265.773px,-32.8769px); animation-timing-function: cubic-bezier(0.25,0.46,0.45,0.94); } 31.8181% { transform: translate(265.773px,38.8954px) rotate3d(0, 1, 0, 0deg) translate(-265.773px,-32.8769px); } 77.2727% { transform: translate(265.773px,38.8954px) rotate3d(0, 1, 0, 0deg) translate(-265.773px,-32.8769px); animation-timing-function: cubic-bezier(0.55,0.085,0.68,0.53); } 90.909% { transform: translate(265.773px,38.8954px) rotate3d(0, 1, 0, -90deg) translate(-265.773px,-32.8769px); } 100% { transform: translate(265.773px,38.8954px) rotate3d(0, 1, 0, -90deg) translate(-265.773px,-32.8769px); } }
@keyframes a3_t { 0% { transform: translate(334.834px,38.7109px) rotate3d(0, 1, 0, 90deg) translate(-334.834px,-32.6925px); } 27.2727% { transform: translate(334.834px,38.7109px) rotate3d(0, 1, 0, 90deg) translate(-334.834px,-32.6925px); animation-timing-function: cubic-bezier(0.25,0.46,0.45,0.94); } 40.909% { transform: translate(334.834px,38.7109px) rotate3d(0, 1, 0, 0deg) translate(-334.834px,-32.6925px); } 77.2727% { transform: translate(334.834px,38.7109px) rotate3d(0, 1, 0, 0deg) translate(-334.834px,-32.6925px); animation-timing-function: cubic-bezier(0.55,0.085,0.68,0.53); } 90.909% { transform: translate(334.834px,38.7109px) rotate3d(0, 1, 0, -90deg) translate(-334.834px,-32.6925px); } 100% { transform: translate(334.834px,38.7109px) rotate3d(0, 1, 0, -90deg) translate(-334.834px,-32.6925px); } }
@keyframes a4_t { 0% { transform: translate(400.377px,38.8958px) rotate3d(0, 1, 0, 90deg) translate(-400.377px,-32.8773px); } 36.3636% { transform: translate(400.377px,38.8958px) rotate3d(0, 1, 0, 90deg) translate(-400.377px,-32.8773px); animation-timing-function: cubic-bezier(0.25,0.46,0.45,0.94); } 50% { transform: translate(400.377px,38.8958px) rotate3d(0, 1, 0, 0deg) translate(-400.377px,-32.8773px); } 77.2727% { transform: translate(400.377px,38.8958px) rotate3d(0, 1, 0, 0deg) translate(-400.377px,-32.8773px); animation-timing-function: cubic-bezier(0.55,0.085,0.68,0.53); } 90.909% { transform: translate(400.377px,38.8958px) rotate3d(0, 1, 0, -90deg) translate(-400.377px,-32.8773px); } 100% { transform: translate(400.377px,38.8958px) rotate3d(0, 1, 0, -90deg) translate(-400.377px,-32.8773px); } }
@keyframes a5_t { 0% { transform: translate(473.472px,47.146px) rotate3d(0, 1, 0, 90deg) translate(-473.472px,-41.1275px); } 45.4545% { transform: translate(473.472px,47.146px) rotate3d(0, 1, 0, 90deg) translate(-473.472px,-41.1275px); animation-timing-function: cubic-bezier(0.25,0.46,0.45,0.94); } 59.0909% { transform: translate(473.472px,47.146px) rotate3d(0, 1, 0, 0deg) translate(-473.472px,-41.1275px); } 77.2727% { transform: translate(473.472px,47.146px) rotate3d(0, 1, 0, 0deg) translate(-473.472px,-41.1275px); animation-timing-function: cubic-bezier(0.55,0.085,0.68,0.53); } 90.909% { transform: translate(473.472px,47.146px) rotate3d(0, 1, 0, -90deg) translate(-473.472px,-41.1275px); } 100% { transform: translate(473.472px,47.146px) rotate3d(0, 1, 0, -90deg) translate(-473.472px,-41.1275px); } }
    </style>
    <g filter="none">
        <path d="M42.915,25.4229L42.915,25.4241L56.2065,38.7159L93.6542,1.26926L93.6542,64.5089L80.3885,64.5089L80.3885,33.2926L56.2065,57.4757L32.0244,33.2926L32.0244,64.5089L18.761,64.5089L18.761,20.028L0,1.26964L18.761,1.26964L42.915,25.4237Z" fill="#700184" fill-rule="nonzero" filter="none" stroke-dasharray="none" stroke-dashoffset="0" stroke-width="0.0373093" transform="translate(55.8271,38.9075) translate(-55.8271,-32.8891)"/>
        <path d="M163.561,51.2447L163.561,64.5082L110.504,64.5082L110.504,1.26852L163.561,1.26852L163.561,14.5324L123.768,14.5324L123.768,51.2447ZM163.561,27.4261L163.561,38.351L137.034,38.351L137.034,27.4261Z" fill="#700184" fill-rule="evenodd" filter="none" stroke-dasharray="none" stroke-dashoffset="0" stroke-width="0.0373093" transform="translate(137.032,38.9068) rotate3d(0, 1, 0, 90) translate(-137.032,-32.8884)" style="animation: 2.2s linear infinite both a0_t;"/>
        <path d="M193.676,1.26852L206.941,1.26852L226.837,1.26852L226.837,14.5324L206.941,14.5324L206.941,64.4847L193.676,64.4847L193.676,14.5324L173.78,14.5324L173.78,1.26852L193.676,1.26852Z" fill="#700184" fill-rule="nonzero" filter="none" stroke-dasharray="none" stroke-dashoffset="0" stroke-width="0.0373093" transform="translate(200.309,38.895) rotate3d(0, 1, 0, 90) translate(-200.309,-32.8766)" style="animation: 2.2s linear infinite both a1_t;"/>
        <path d="M250.059,38.351L250.059,64.485L237.054,64.485L237.054,1.26889L266.315,1.26889C272.998,1.26889,278.327,2.98549,282.21,6.50749C286.093,9.93957,288.081,14.4533,288.081,19.9631C288.081,28.3618,283.203,34.3798,274.985,36.9082C281.488,45.9076,287.99,55.4853,294.492,64.485L279.411,64.485L260.988,38.351ZM265.594,12.0722L250.06,12.0722L250.06,27.4261L265.594,27.4261C271.464,27.4261,274.986,24.7148,274.986,19.7486C274.986,14.9614,271.464,12.0722,265.594,12.0722Z" fill="#700184" fill-rule="evenodd" filter="none" stroke-dasharray="none" stroke-dashoffset="0" stroke-width="0.0373093" transform="translate(265.773,38.8954) rotate3d(0, 1, 0, 90) translate(-265.773,-32.8769)" style="animation: 2.2s linear infinite both a2_t;"/>
        <path d="M321.378,49.8542L315.144,64.485L301.505,64.485L328.601,0.899901L341.068,0.899901L368.163,64.485L354.343,64.485L348.111,49.8542ZM343.956,39.1058L334.743,17.1574L325.441,39.1058Z" fill="#700184" fill-rule="evenodd" filter="none" stroke-dasharray="none" stroke-dashoffset="0" stroke-width="0.0373093" transform="translate(334.834,38.7109) rotate3d(0, 1, 0, 90) translate(-334.834,-32.6925)" style="animation: 2.2s linear infinite both a3_t;"/>
        <path d="M410.327,27.8193L410.327,40.8253L417.087,40.8253L417.087,49.5867C414.105,52.3868,409.862,53.7415,404.351,53.7415C398.571,53.7415,393.694,51.8446,389.811,48.1413C385.928,44.4373,383.94,39.3822,383.94,33.149C383.94,26.8265,385.928,21.7674,389.992,17.9734C394.056,14.0899,399.294,12.1945,405.706,12.1945L430.093,12.1945L430.093,0.000373093L405.706,0.000373093L405.706,0.0100735C405.407,0.00447712,405.107,0.000373093,404.803,0.000373093C394.959,0.000373093,386.74,3.07093,380.327,9.21391C373.914,15.3543,370.662,23.2139,370.662,32.8788C370.662,42.4517,373.914,50.3082,380.327,56.5415C386.74,62.6837,394.778,65.7543,404.351,65.7543C409.681,65.7543,414.649,64.7593,419.254,62.8647C423.861,60.9683,427.474,58.5282,430.093,55.7282L430.093,40.8257L430.093,27.8197L417.087,27.8197L410.327,27.8197Z" fill="#700184" fill-rule="nonzero" filter="none" stroke-dasharray="none" stroke-dashoffset="0" stroke-width="0.0373093" transform="translate(400.377,38.8958) rotate3d(0, 1, 0, 90) translate(-400.377,-32.8773)" style="animation: 2.2s linear infinite both a4_t;"/>
        <path d="M500,51.2451L500,64.5085L471.66,64.5085L455.183,80.9862L455.183,64.5085L446.944,64.5085L446.944,1.26889L500,1.26889L500,14.5327L460.208,14.5327L460.208,51.2451ZM500,26.2561L500,39.5214L473.473,39.5214L473.473,26.2561Z" fill="#700184" fill-rule="evenodd" filter="none" stroke-dasharray="none" stroke-dashoffset="0" stroke-width="0.0373093" transform="translate(473.472,47.146) rotate3d(0, 1, 0, 90) translate(-473.472,-41.1275)" style="animation: 2.2s linear infinite both a5_t;"/>
    </g>
</svg>
