<svg width="16.000000" height="16.000000" viewBox="0 0 16 16" fill="none" xmlns="http://www.w3.org/2000/svg" xmlns:xlink="http://www.w3.org/1999/xlink">
	<desc>
			Created with Pixso.
	</desc>
	<defs>
		<clipPath id="clip4698_14502">
			<rect id="Icon / Phone" rx="-0.500000" width="15.000000" height="15.000000" transform="translate(0.500000 0.500000)" fill="white" fill-opacity="0"/>
		</clipPath>
	</defs>
	<g clip-path="url(#clip4698_14502)">
		<path id="coolicon" d="M12.66 13.33C6.98 13.34 2.66 8.97 2.66 3.33C2.66 2.96 2.96 2.66 3.33 2.66L5.09 2.66C5.42 2.66 5.7 2.9 5.75 3.23C5.87 4.01 6.09 4.78 6.42 5.5L6.5 5.64C6.59 5.85 6.53 6.09 6.34 6.22C5.8 6.61 5.59 7.4 6.01 8.01C6.55 8.78 7.22 9.45 7.98 9.98C8.59 10.4 9.38 10.2 9.77 9.65C9.9 9.47 10.14 9.4 10.35 9.5L10.5 9.57C11.21 9.9 11.98 10.13 12.76 10.24C13.09 10.29 13.33 10.57 13.33 10.9L13.33 12.66C13.33 13.03 13.03 13.33 12.66 13.33L12.66 13.33Z" fill="#1B0020" fill-opacity="1.000000" fill-rule="evenodd"/>
	</g>
</svg>
