<svg width="24.000000" height="24.000000" viewBox="0 0 24 24" stroke="#1B0020" fill="none" xmlns="http://www.w3.org/2000/svg" xmlns:xlink="http://www.w3.org/1999/xlink">
	<defs>
	</defs>
		<path id="coolicon" d="M8.5 17.46C6.89 15.55 5 12.71 5 10C4.99 7.16 6.7 4.61 9.32 3.52C11.93 2.44 14.95 3.04 16.95 5.04C18.26 6.35 19 8.14 19 10C19 12.71 17.1 15.55 15.5 17.46C14.43 18.74 13.26 19.92 12 21C10.73 19.92 9.56 18.74 8.5 17.46ZM9.4 8.5C8.86 9.42 8.86 10.57 9.4 11.5C9.93 12.42 10.92 13 12 13C13.65 13 15 11.65 15 10C15 8.34 13.65 7 12 7C10.92 7 9.93 7.57 9.4 8.5Z" stroke-opacity="1.000000" stroke-width="1.000000"/>
</svg>
