<svg width="16.000000" height="16.000000" viewBox="0 0 16 16" fill="none" xmlns="http://www.w3.org/2000/svg" xmlns:xlink="http://www.w3.org/1999/xlink">
	<desc>
			Created with Pixso.
	</desc>
	<defs>
		<clipPath id="clip229_3579">
			<rect id="Icon / pin" rx="-0.500000" width="15.000000" height="15.000000" transform="translate(0.500000 0.500000)" fill="white" fill-opacity="0"/>
		</clipPath>
	</defs>
	<rect id="Icon / pin" rx="-0.500000" width="15.000000" height="15.000000" transform="translate(0.500000 0.500000)" fill="#FFFFFF" fill-opacity="0"/>
	<g clip-path="url(#clip229_3579)">
		<path id="coolicon" d="M5.66 11.64C4.59 10.37 3.33 8.47 3.33 6.66C3.33 4.77 4.46 3.07 6.21 2.35C7.95 1.63 9.96 2.03 11.3 3.36C12.17 4.23 12.66 5.42 12.66 6.66C12.66 8.47 11.39 10.37 10.33 11.64C9.62 12.49 8.83 13.28 8 14C7.15 13.28 6.37 12.49 5.66 11.64ZM6.26 5.66C5.91 6.28 5.91 7.04 6.26 7.66C6.62 8.28 7.28 8.66 8 8.66C9.1 8.66 10 7.77 10 6.66C10 5.56 9.1 4.66 8 4.66C7.28 4.66 6.62 5.04 6.26 5.66Z" stroke="#1B0020" stroke-opacity="1.000000" stroke-width="1.000000"/>
	</g>
</svg>
